<svg viewBox="0 0 200 200" xmlns="http://www.w3.org/2000/svg" xml:space="preserve" style="fill-rule:evenodd;clip-rule:evenodd;stroke-linejoin:round;stroke-miterlimit:1.41421"><path style="fill:none" d="M0 0h200v200H0z"/><clipPath id="a"><path d="M0 0h200v200H0z"/></clipPath><g clip-path="url(#a)"><circle cx="100" cy="100" r="100" style="fill:#fff"/><path d="M127.978 31.019c26.683 11.013 45.481 37.296 45.481 67.935 0 40.544-32.916 73.46-73.459 73.46-6.1 0-29.968 22.01-29.968 22.01l71.96-116.783L100 86.32l27.978-55.301Z" style="fill:#3ac7e5"/><path d="M72.666 168.152c-27.024-10.854-46.125-37.313-46.125-68.198 0-40.543 32.916-73.459 73.459-73.459 2.336 0 34.664-20.19 35.487-20.005L56.711 110.24l39.995-7.416-24.04 65.328Z" style="fill:#002d37"/></g></svg>
