<svg viewBox="0 0 129 33" xmlns="http://www.w3.org/2000/svg" xml:space="preserve" style="fill-rule:evenodd;clip-rule:evenodd;stroke-linejoin:round;stroke-miterlimit:1.41421"><path style="fill:none" d="M.694.254h128v32h-128z"/><path d="M59.189 20.54c-.578 3.276-3.147 4.914-7.706 4.914-1.665 0-3.11-.191-4.336-.571l.833-2.086c1.397.514 2.764.771 4.101.771 3.01 0 4.665-.85 4.965-2.55.151-.859-.109-1.594-.78-2.205-.451-.407-1.382-.952-2.793-1.634-1.485-.717-2.498-1.376-3.038-1.978-.748-.833-1.01-1.878-.789-3.135.231-1.31.875-2.377 1.933-3.201 1.18-.92 2.7-1.381 4.56-1.381 2.107 0 3.526.137 4.257.412l-.691 2.112c-1.271-.425-2.664-.638-4.178-.638-2.275 0-3.547.762-3.816 2.284-.13.735.09 1.351.657 1.847.371.309 1.226.779 2.568 1.407 1.529.718 2.604 1.399 3.225 2.046.935.974 1.278 2.169 1.028 3.586ZM74.037 18.189c-.337 1.912-1.179 3.588-2.526 5.027-1.347 1.439-2.995 2.158-4.943 2.158-1.629 0-2.649-.292-3.059-.877h-.133a251.57 251.57 0 0 0-1.082 6.588h-2.497c.619-2.355 1.234-5.264 1.844-8.726.753-4.268 1.114-7.57 1.083-9.908l2.396-.332-.032 1.315h.132c1.036-1 2.514-1.501 4.435-1.501 1.691 0 2.919.618 3.685 1.853.765 1.235.997 2.703.697 4.403Zm-2.42.319c.231-1.311.084-2.433-.442-3.367-.526-.934-1.413-1.401-2.662-1.401-1.593 0-2.821.482-3.681 1.447-.383 2.975-.763 5.53-1.139 7.664.611.602 1.492.903 2.643.903 1.461 0 2.643-.514 3.545-1.541.903-1.027 1.482-2.262 1.736-3.705ZM85.196 25.015l-2.099.08a5.06 5.06 0 0 1 .058-1.235h-.133c-1.264.992-2.834 1.487-4.711 1.487-1.018 0-1.842-.298-2.472-.896-.629-.598-.847-1.45-.651-2.557.24-1.363 1.009-2.459 2.306-3.287 1.297-.828 3.512-1.264 6.645-1.308.064-.213.121-.456.169-.731.192-1.089.03-1.815-.486-2.178s-1.363-.544-2.54-.544c-1.39 0-2.789.172-4.195.518l.549-1.833c1.395-.381 2.956-.571 4.682-.571 1.576 0 2.736.325 3.48.976.745.651.978 1.76.702 3.327a75.732 75.732 0 0 1-.459 2.264 78.708 78.708 0 0 0-.445 2.185c-.284 1.612-.417 3.046-.4 4.303Zm-1.897-2.576c.193-1.346.384-2.555.573-3.626-1.664 0-2.952.124-3.864.372-1.53.443-2.405 1.288-2.625 2.537-.212 1.204.531 1.806 2.231 1.806 1.461 0 2.69-.363 3.685-1.089ZM98.136 12.398l-.97 2.112c-.642-.275-1.26-.412-1.853-.412-1.665 0-2.885.793-3.66 2.378-.718 4.072-1.194 6.919-1.426 8.539h-2.351c.637-2.806 1.092-4.985 1.365-6.534.37-2.098.516-4.108.439-6.03l2.382-.332c-.003.974-.034 1.625-.091 1.953h.106c1.204-1.408 2.444-2.112 3.719-2.112.673 0 1.453.146 2.34.438ZM108.234 25.015h-3.122c.055-.31-.595-1.492-1.951-3.546-1.389-2.116-2.309-3.174-2.76-3.174h-.093a185.318 185.318 0 0 0-1.039 6.72h-2.338c.687-3.24 1.327-6.543 1.92-9.907.604-3.427.992-6.353 1.163-8.779l2.573-.133c-.435 1.912-1.138 5.627-2.111 11.143h.093c.292 0 1.343-.746 3.151-2.238 1.808-1.492 2.739-2.393 2.794-2.703h2.935c-.05.284-.875 1.018-2.474 2.205-1.497 1.107-2.848 2.019-4.055 2.736l-.019.106c.951.832 2.112 2.258 3.483 4.277 1.285 1.903 1.901 3.001 1.85 3.293Z" style="fill:#002d37;fill-rule:nonzero;stroke:#002d37;stroke-width:1px"/><g><circle cx="16.694" cy="16.254" r="16" style="fill:#fff"/><path d="m16.901.256.206.003.205.007.205.009.204.012.204.014.202.017.202.019.201.022.201.024.2.027.199.029.198.031.197.034.197.037.195.039.195.041.194.043.193.046.192.048.191.051.19.053.19.055.188.057.187.06.187.061.185.065.184.066.184.068.182.071.181.073.18.074.179.077.177.08.177.081.175.083.175.085.173.088.172.089.17.092.17.093.168.095.167.098.165.099.165.101.163.103.161.105.16.107.159.109.158.111.156.112.155.115.153.116.152.118.15.119.149.122.148.123.146.125.144.127.143.128.141.13.14.131.138.134.137.135.135.136.133.138.132.14.13.142.128.142.127.145.125.146.123.147.121.149.12.151.118.151.116.154.114.154.113.157.11.157.109.159.107.16.105.162.103.163.102.164.099.166.097.167.096.168.093.169.091.171.09.172.087.173.086.174.083.176.081.176.079.178.077.179.075.18.073.181.07.182.069.183.066.185.064.185.062.186.059.188.058.188.055.189.053.19.05.192.048.192.046.193.044.194.041.194.039.196.036.197.034.197.032.198.029.199.027.2.024.2.022.201.019.202.017.203.014.203.011.204.01.205.006.206.004.206.001.206-.001.207-.004.206-.006.205-.01.205-.011.204-.014.204-.017.202-.019.202-.022.201-.024.201-.027.2-.029.199-.032.198-.034.197-.036.196-.039.196-.041.195-.044.194-.046.193-.048.192-.05.191-.053.19-.055.19-.058.188-.059.187-.062.187-.064.185-.066.184-.069.183-.07.183-.073.181-.075.18-.077.179-.079.177-.081.177-.083.175-.086.175-.087.173-.09.172-.091.17-.093.17-.096.168-.097.167-.099.165-.102.164-.103.163-.105.162-.107.16-.109.159-.11.158-.113.156-.114.155-.116.153-.118.152-.12.15-.121.149-.123.148-.125.146-.127.144-.128.143-.13.141-.132.14-.133.138-.135.137-.137.135-.138.133-.14.132-.141.13-.143.128-.144.127-.146.125-.148.123-.149.121-.15.12-.152.118-.153.116-.155.114-.156.113-.158.11-.159.109-.16.107-.161.105-.163.103-.165.101-.165.1-.167.097-.168.096-.17.093-.17.091-.172.09-.173.087-.175.085-.175.084-.177.081-.177.079-.179.077-.18.075-.181.073-.182.07-.184.069-.184.066-.185.064-.187.062-.187.059-.188.058-.19.055-.19.053-.191.05-.192.048-.193.046-.194.044-.195.041-.195.039-.197.036-.197.034-.198.032-.199.029-.2.027-.201.024-.201.022-.202.019-.202.017-.204.014-.204.011-.205.009-.205.007-.206.004-.207.001-.206-.001-.206-.004-.206-.007-.205-.009-.204-.011-.203-.014-.203-.017-.202-.019-.201-.022-.2-.024-.2-.027-.199-.029-.198-.032-.197-.034-.197-.036-.196-.039-.194-.041-.194-.044-.193-.046-.192-.048-.192-.05-.19-.053-.189-.055-.188-.058-.188-.059-.186-.062-.185-.064-.185-.066-.183-.069-.182-.07-.181-.073-.18-.075-.179-.077-.178-.079-.176-.081-.176-.084-.174-.085-.173-.087-.172-.09-.171-.091-.169-.093-.168-.096-.167-.097-.166-.1-.164-.101-.163-.103-.162-.105-.16-.107-.159-.109-.157-.11-.156-.113-.155-.114-.153-.116-.152-.118-.151-.12-.149-.121-.147-.123-.146-.125-.144-.127-.143-.128-.142-.13-.139-.132-.139-.133-.136-.135-.135-.137-.133-.138-.132-.14-.13-.141-.128-.143-.127-.144-.125-.146-.123-.148-.122-.149-.119-.15-.118-.152-.116-.153-.115-.155-.112-.156-.111-.158-.109-.159-.106-.16-.106-.162-.103-.163-.101-.164-.099-.165-.098-.167-.095-.168-.093-.17-.092-.17-.089-.172-.088-.173-.085-.175-.083-.175-.081-.177-.079-.177-.077-.179-.075-.18-.073-.181-.071-.183-.068-.183-.066-.184-.064-.185-.062-.187-.06-.187-.057-.188-.055-.19-.053-.19-.051-.191-.048-.192-.046-.193-.043-.194-.041-.195-.039-.196-.037-.196-.034-.197-.031-.198-.029-.199-.027-.2-.024-.201-.022-.201-.019-.202-.017-.202-.014-.204-.012-.204-.009-.205-.006-.205-.004-.206-.002-.207.002-.206.004-.206.006-.206.009-.205.012-.204.014-.203.017-.203.019-.202.022-.201.024-.2.027-.2.029-.199.031-.198.034-.197.037-.197.039-.196.041-.194.043-.194.046-.193.048-.192.051-.192.053-.19.055-.189.057-.188.06-.188.062-.186.064-.185.066-.185.068-.183.071-.182.073-.181.075-.18.077-.179.079-.178.081-.176.083-.176.085-.174.088-.173.089-.172.092-.171.093-.169.095-.168.098-.167.099-.166.101-.164.103-.163.106-.162.106-.16.109-.159.111-.157.112-.157.115-.154.116-.154.118-.151.119-.151.122-.149.123-.147.125-.146.127-.145.128-.142.13-.142.132-.14.133-.138.135-.136.136-.135.139-.134.139-.131.142-.13.143-.128.144-.127.146-.125.147-.123.149-.122.151-.119.152-.118.153-.116.155-.115.156-.112.157-.111.159-.109.16-.107.162-.105.163-.103.164-.101.166-.099.167-.098.168-.095.169-.093.171-.092.172-.089.173-.088.174-.085.176-.083.176-.081.178-.08.179-.077.18-.074.181-.073.182-.071.183-.068.185-.066.185-.065.186-.061.188-.06.188-.057.189-.055.19-.053.192-.051.192-.048.193-.046.194-.043.194-.041.196-.039.197-.037.197-.034.198-.031.199-.029.2-.027.2-.024.201-.022.202-.019.203-.017.203-.014.204-.012.205-.009.206-.007.206-.003.206-.002.207.002Zm-.388 1.999-.181.004-.18.006-.179.008-.179.01-.178.012-.178.015-.176.017-.176.019-.176.021-.175.023-.174.026-.173.027-.172.03-.172.032-.171.034-.17.036-.17.038-.169.04-.168.042-.167.044-.166.046-.165.049-.165.05-.164.052-.162.054-.162.056-.161.058-.161.06-.159.061-.158.064-.158.065-.156.068-.155.069-.155.071-.153.073-.153.074-.151.077-.15.078-.15.08-.148.082-.147.083-.146.085-.145.087-.143.089-.143.09-.142.092-.14.093-.139.096-.138.097-.137.098-.135.1-.134.102-.133.103-.132.105-.131.106-.129.108-.127.109-.127.111-.125.113-.124.114-.122.115-.121.117-.12.118-.118.12-.117.121-.115.122-.114.124-.112.125-.111.126-.11.128-.108.129-.106.131-.105.132-.103.132-.102.135-.1.135-.098.137-.097.138-.095.139-.094.14-.092.142-.09.142-.089.144-.087.145-.085.146-.083.147-.082.148-.08.15-.078.15-.077.151-.074.153-.073.153-.071.155-.069.155-.068.156-.065.158-.064.158-.061.159-.06.16-.058.162-.056.161-.054.163-.052.164-.05.165-.048.165-.047.166-.044.167-.042.168-.04.169-.038.17-.036.17-.034.171-.032.171-.03.173-.027.173-.026.174-.023.175-.021.176-.019.176-.017.176-.015.178-.012.178-.01.179-.008.179-.006.18-.003.181-.002.181.002.182.003.18.006.18.008.18.01.179.012.178.015.177.017.177.019.176.021.175.023.175.026.174.027.173.03.173.032.172.034.171.036.17.038.169.04.169.042.168.044.167.047.166.048.166.05.165.052.163.054.163.056.162.058.161.06.16.061.159.064.159.065.157.068.156.069.156.071.154.073.154.074.152.077.151.078.151.08.149.082.148.083.147.085.146.087.145.089.144.09.143.092.141.094.14.095.14.097.138.098.136.1.136.102.134.103.133.105.132.106.13.108.129.11.128.111.127.112.125.114.123.115.123.117.121.118.119.12.119.121.116.122.116.124.114.125.112.127.111.127.109.129.108.131.107.132.104.133.104.134.101.135.1.137.099.138.097.139.095.14.094.142.092.142.09.144.088.145.087.146.086.147.083.149.082.149.08.15.078.151.076.153.075.153.073.155.071.155.069.156.067.158.066.158.063.159.062.161.06.161.058.162.056.162.054.164.052.165.05.165.048.166.046.167.044.168.042.169.041.17.038.17.036.171.034.172.031.172.03.173.028.174.025.175.024.176.021.176.019.176.017.178.014.178.013.179.01.179.008.18.006.181.003.181.001.182-.001.18-.003.18-.006.18-.008.179-.01.178-.013.177-.014.177-.017.176-.019.175-.021.175-.024.174-.025.173-.028.173-.03.172-.031.171-.034.17-.036.17-.038.168-.041.168-.042.167-.044.166-.046.166-.048.165-.05.163-.052.163-.054.162-.056.161-.058.16-.06.16-.062.158-.063.157-.066.157-.067.155-.069.154-.071.154-.073.152-.075.152-.076.15-.078.149-.08.148-.082.147-.083.146-.086.145-.087.144-.088.143-.09.141-.092.141-.094.139-.095.138-.097.136-.099.136-.1.134-.101.133-.104.132-.104.13-.107.129-.108.128-.109.127-.111.125-.112.124-.114.122-.115.121-.117.12-.119.118-.119.117-.121.115-.123.114-.123.112-.125.111-.127.109-.128.108-.129.107-.13.105-.132.103-.133.101-.134.101-.136.098-.136.097-.138.095-.139.094-.141.092-.141.09-.143.089-.144.086-.145.086-.146.083-.147.082-.148.08-.149.078-.151.076-.151.075-.152.073-.154.071-.154.069-.156.067-.156.066-.157.063-.159.062-.159.06-.16.058-.161.056-.162.054-.163.052-.164.05-.164.048-.165.046-.167.044-.167.043-.168.04-.168.038-.17.036-.17.034-.171.031-.172.03-.173.028-.173.025-.174.024-.175.021-.175.019-.176.017-.177.014-.177.013-.178.01-.179.008-.18.006-.18.003-.18.001-.182-.001-.181-.003-.181-.006-.18-.008-.179-.01-.179-.013-.178-.014-.177-.017-.177-.019-.176-.021-.176-.024-.175-.025-.174-.028-.173-.03-.172-.031-.172-.034-.171-.036-.171-.038-.169-.04-.169-.043-.168-.044-.167-.046-.166-.048-.165-.05-.165-.052-.164-.054-.163-.056-.162-.058-.161-.06-.16-.062-.159-.063-.158-.066-.158-.067-.156-.069-.155-.071-.155-.073-.153-.075-.153-.076-.151-.078-.15-.08-.15-.082-.148-.083-.147-.086-.146-.086-.145-.089-.144-.09-.142-.092-.142-.094-.14-.095-.139-.097-.138-.098-.137-.101-.135-.101-.135-.103-.132-.105-.132-.107-.131-.108-.129-.109-.128-.111-.126-.112-.125-.114-.124-.115-.122-.117-.121-.118-.12-.12-.118-.121-.117-.122-.115-.124-.114-.125-.113-.127-.11-.128-.11-.129-.108-.13-.106-.132-.105-.133-.103-.134-.102-.136-.1-.136-.098-.138-.097-.139-.096-.141-.093-.141-.092-.143-.09-.144-.089-.145-.087-.146-.085-.147-.083-.148-.082-.149-.08-.15-.078-.152-.077-.152-.074-.154-.073-.154-.071-.155-.069-.157-.068-.157-.065-.158-.064-.16-.061-.16-.06-.161-.058-.162-.056-.163-.054-.163-.052-.165-.05-.165-.049-.167-.046-.167-.044-.168-.042-.168-.04-.17-.038-.17-.036-.171-.034-.172-.032-.173-.03-.173-.027-.174-.026-.175-.023-.175-.021-.176-.019-.177-.017-.177-.015-.178-.012-.179-.01-.18-.008-.18-.006-.18-.004-.182-.001-.181.001Z" style="fill:#002d37"/><path d="M20.863 5.981c3.975 1.641 6.776 5.557 6.776 10.121 0 6.041-4.904 10.945-10.945 10.945-.908 0-4.465 3.279-4.465 3.279l10.722-17.399-6.257 1.293 4.169-8.239Z" style="fill:#3ac7e5"/><g><path d="M12.622 26.412C8.596 24.795 5.75 20.853 5.75 16.251c0-6.04 4.904-10.944 10.944-10.944.348 0 5.165-3.008 5.287-2.981L10.245 17.784l5.959-1.105-3.582 9.733Z" style="fill:#002d37"/></g></g></svg>